<svg width="555" height="185" viewBox="0 0 555 185" fill="none" xmlns="http://www.w3.org/2000/svg">
<path fill-rule="evenodd" clip-rule="evenodd" d="M115.918 70.7738H46.8913L46.8913 2.9125L0 2.9125L0 181.74H46.8913L46.8913 110.966H115.918L115.918 181.74H162.809L162.809 2.9125L115.918 2.9125L115.918 70.7738ZM119.918 6.9125L119.918 74.7738L42.8913 74.7738L42.8913 6.9125L4 6.9125L4 177.74H42.8913L42.8913 106.966L119.918 106.966L119.918 177.74H158.809L158.809 6.9125L119.918 6.9125ZM262.821 59.4151C261.462 56.5025 260.783 53.6871 260.783 50.9688C260.783 46.503 262.239 42.9109 265.151 40.1925C268.064 37.28 271.85 35.8238 276.51 35.8238C280.976 35.8238 284.471 37.28 286.995 40.1925C289.519 42.9109 290.976 46.3088 291.364 50.3863L335.343 50.3863C335.254 49.03 335.124 47.6967 334.955 46.3863C333.279 33.4397 327.68 22.7347 318.159 14.2713C307.674 4.75708 293.791 0 276.51 0C258.841 0 244.473 4.66 233.405 13.98C222.338 23.3 216.804 35.6296 216.804 50.9688C216.804 60.5616 219.298 69.6254 224.285 78.1603C224.95 79.2997 225.661 80.4296 226.415 81.5501C225.245 82.215 224.107 82.9128 223.003 83.6433C216.043 88.2457 210.384 94.1496 206.028 101.355C200.979 109.51 198.455 118.345 198.455 127.859C198.455 145.334 204.183 159.217 215.639 169.508C227.289 179.604 242.725 184.653 261.948 184.653C277.675 184.653 292.432 180.284 306.218 171.546L315.538 181.74H366.798L334.469 144.46C345.751 128.629 351.832 110.837 352.711 91.0838C352.77 89.7593 352.806 88.426 352.818 87.0838H312.625C312.312 95.3819 311.241 102.733 309.413 109.137C308.974 110.675 308.492 112.159 307.965 113.588L273.889 73.9776C270.782 70.4826 268.549 67.9584 267.19 66.4051C265.831 64.6576 264.375 62.3276 262.821 59.4151ZM270.878 76.6109C267.782 73.1278 265.547 70.6015 264.18 69.0391L264.104 68.9521L264.033 68.8608C262.483 66.8688 260.906 64.3236 259.292 61.2974L259.242 61.2033L259.197 61.1066C257.635 57.76 256.783 54.3686 256.783 50.9688C256.783 45.5663 258.581 40.8802 262.372 37.3156C266.128 33.5852 270.965 31.8238 276.51 31.8238C281.908 31.8238 286.568 33.6243 289.972 37.5204C292.313 40.0581 293.885 43.0421 294.728 46.3863H330.919C329.282 34.5794 324.138 24.9374 315.502 17.2609L315.486 17.2473L315.471 17.2335C305.876 8.52705 293.027 4 276.51 4C259.567 4 246.178 8.45316 235.982 17.0396C225.877 25.5489 220.804 36.7285 220.804 50.9688C220.804 61.0011 223.744 70.4236 229.733 79.3157L232.144 82.8957L228.391 85.0279C220.438 89.5466 214.142 95.6653 209.451 103.425L209.44 103.443L209.429 103.461C204.769 110.988 202.455 119.095 202.455 127.859C202.455 144.354 207.81 157.085 218.286 166.508C229.039 175.815 243.457 180.653 261.948 180.653C276.887 180.653 290.906 176.516 304.076 168.168L306.908 166.373L317.3 177.74H358.035L329.385 144.702L331.212 142.139C341.998 127.002 347.833 110.018 348.707 91.0838H316.42C315.809 100.085 314.263 108.065 311.719 114.97L309.368 121.351L270.878 76.6109ZM288.626 146.075L283.747 148.371C276.687 151.693 269.603 153.411 262.53 153.411C254.783 153.411 248.216 151.239 243.392 146.415L243.357 146.38L243.324 146.345C238.633 141.42 236.395 135.141 236.395 127.859C236.395 118.358 240.021 110.738 247.449 105.631L250.337 103.646L288.626 146.075ZM282.044 144.751L249.715 108.928C243.502 113.199 240.395 119.51 240.395 127.859C240.395 134.266 242.337 139.509 246.22 143.586C250.104 147.47 255.54 149.411 262.53 149.411C267.674 149.411 272.881 148.41 278.151 146.408C279.445 145.916 280.742 145.364 282.044 144.751ZM513.743 117.16L512.043 122.395C509.385 130.583 504.866 136.996 498.364 141.312C491.903 145.601 483.837 147.586 474.453 147.586C460.699 147.586 449.435 142.437 441.059 132.129L441.03 132.094L441.003 132.058C432.947 121.67 429.096 108.307 429.096 92.3263C429.096 76.549 432.845 63.3039 440.68 52.9271L440.696 52.9066L440.711 52.8863C448.889 42.3416 460.083 37.0663 473.871 37.0663C482.359 37.0663 489.758 39.0376 495.812 43.2417C501.177 46.9677 505.223 52.265 508.053 58.91L548.162 58.91C544.347 42.9233 536.572 30.0941 524.883 20.2423C512.176 9.53235 495.301 4 473.871 4C449.245 4 429.253 12.2551 413.562 28.6839L413.555 28.6921L413.547 28.7002C397.868 44.9325 389.913 66.0182 389.913 92.3263C389.913 118.629 397.865 139.819 413.553 156.251C429.227 172.474 449.409 180.653 474.453 180.653C497.452 180.653 515.701 173.675 529.594 159.971C543.465 146.094 550.547 127.572 550.547 103.976V90.2101L484.57 90.2101V117.16L513.743 117.16ZM532.412 162.809C517.656 177.371 498.336 184.653 474.453 184.653C448.435 184.653 427.174 176.109 410.67 159.023C394.165 141.742 385.913 119.51 385.913 92.3263C385.913 65.143 394.165 43.0079 410.67 25.9213C427.174 8.64042 448.241 0 473.871 0C496.006 0 513.869 5.72792 527.461 17.1838C540.087 27.8254 548.356 41.7341 552.269 58.91C552.569 60.2243 552.843 61.5576 553.091 62.91L505.326 62.91C500.083 48.3475 489.598 41.0663 473.871 41.0663C461.25 41.0663 451.251 45.8234 443.872 55.3375C436.688 64.8517 433.096 77.1813 433.096 92.3263C433.096 107.666 436.785 120.092 444.163 129.606C451.736 138.926 461.833 143.586 474.453 143.586C490.47 143.586 501.221 137.444 506.708 125.16C507.274 123.892 507.784 122.559 508.239 121.16L480.57 121.16V86.2101L554.547 86.2101V103.976C554.547 128.441 547.169 148.052 532.412 162.809Z" fill="black" fill-opacity="0.05"/>
</svg>
